<?xml version="1.0" ?><svg id="Layer_1" style="enable-background:new 0 0 108 108;" version="1.1" viewBox="0 0 108 108" xml:space="preserve" xmlns="http://www.w3.org/2000/svg" xmlns:xlink="http://www.w3.org/1999/xlink"><path d="M5,5v98h98V5H5z M81,13H27V7h54V13z M81,21H27v-6h54V21z M81,29H27v-6h54V29z M81,37H27v-6h54V37z M81,45H27v-6h54V45z   M81,53H27v-6h54V53z M81,61H27v-6h54V61z M81,69H27v-6h54V69z M81,77H27v-6h54V77z M101,101H7V7h18v6H14c-0.552,0-1,0.448-1,1  s0.448,1,1,1h11v6H14c-0.552,0-1,0.448-1,1s0.448,1,1,1h11v6H14c-0.552,0-1,0.448-1,1s0.448,1,1,1h11v6H14c-0.552,0-1,0.448-1,1  s0.448,1,1,1h11v6H14c-0.552,0-1,0.448-1,1s0.448,1,1,1h11v6H14c-0.552,0-1,0.448-1,1s0.448,1,1,1h11v6H14c-0.552,0-1,0.448-1,1  s0.448,1,1,1h11v6H14c-0.552,0-1,0.448-1,1s0.448,1,1,1h11v6H14c-0.552,0-1,0.448-1,1s0.448,1,1,1h80c0.552,0,1-0.448,1-1  s-0.448-1-1-1H83v-6h11c0.552,0,1-0.448,1-1s-0.448-1-1-1H83v-6h11c0.552,0,1-0.448,1-1s-0.448-1-1-1H83v-6h11c0.552,0,1-0.448,1-1  s-0.448-1-1-1H83v-6h11c0.552,0,1-0.448,1-1s-0.448-1-1-1H83v-6h11c0.552,0,1-0.448,1-1s-0.448-1-1-1H83v-6h11c0.552,0,1-0.448,1-1  s-0.448-1-1-1H83v-6h11c0.552,0,1-0.448,1-1s-0.448-1-1-1H83v-6h11c0.552,0,1-0.448,1-1s-0.448-1-1-1H83V7h18V101z"/></svg>