<?xml version="1.0" ?><svg height="32" id="svg2" version="1.1" width="32" xmlns="http://www.w3.org/2000/svg" xmlns:cc="http://creativecommons.org/ns#" xmlns:dc="http://purl.org/dc/elements/1.1/" xmlns:inkscape="http://www.inkscape.org/namespaces/inkscape" xmlns:rdf="http://www.w3.org/1999/02/22-rdf-syntax-ns#" xmlns:sodipodi="http://sodipodi.sourceforge.net/DTD/sodipodi-0.dtd" xmlns:svg="http://www.w3.org/2000/svg"><defs id="defs4"><clipPath id="clipPath6253"><rect height="15.069113" id="rect6255" rx="1.7728368" ry="1.7728368" style="fill:#fed42a;fill-opacity:1;stroke:none" width="15.069113" x="8.9285192" y="11.565901"/></clipPath><clipPath id="clipPath6271"><path d="m 31.819806,16.001709 a 15.379573,15.379573 0 1 1 -30.7591456,0 15.379573,15.379573 0 1 1 30.7591456,0 z" id="path6273" style="fill:#37c8ab;fill-opacity:1;stroke:none" transform="matrix(1.040341,0,0,1.040341,-1.1034487,-0.6472)"/></clipPath><clipPath id="clipPath5368"><rect height="15.069113" id="rect5370" rx="1.7728368" ry="1.7728368" style="fill:#f9ae00;fill-opacity:1;stroke:none" width="15.069113" x="8.5749655" y="1032.1049"/></clipPath><clipPath id="clipPath6541"><path d="m 31.819806,16.001709 a 15.379573,15.379573 0 1 1 -30.7591456,0 15.379573,15.379573 0 1 1 30.7591456,0 z" id="path6543" style="fill:#485e7f;fill-opacity:1;stroke:none" transform="matrix(1.040341,0,0,1.040341,509.27301,983.74518)"/></clipPath><clipPath id="clipPath6447"><path d="m 31.819806,16.001709 a 15.379573,15.379573 0 1 1 -30.7591456,0 15.379573,15.379573 0 1 1 30.7591456,0 z" id="path6449" style="fill:#37c8ab;fill-opacity:1;stroke:none" transform="matrix(1.040341,0,0,1.040341,-1.1034487,-0.6472)"/></clipPath><clipPath id="clipPath6448"><path d="m 31.819806,16.001709 a 15.379573,15.379573 0 1 1 -30.7591456,0 15.379573,15.379573 0 1 1 30.7591456,0 z" id="path6450" style="fill:#53899f;fill-opacity:1;stroke:none" transform="matrix(1.040341,0,0,1.040341,239.98468,1066.239)"/></clipPath><clipPath id="clipPath6676"><path d="M 38.000041,17 A 14.000041,14.000041 0 1 1 9.999959,17 14.000041,14.000041 0 1 1 38.000041,17 z" id="path6678" style="fill:#a88880;fill-opacity:1;stroke:none" transform="matrix(0.87239982,0,0,0.87239982,602.08119,984.95986)"/></clipPath><clipPath id="clipPath6394"><path d="m 31.819806,16.001709 a 15.379573,15.379573 0 1 1 -30.7591456,0 15.379573,15.379573 0 1 1 30.7591456,0 z" id="path6396" style="fill:#2b6ac1;fill-opacity:1;stroke:none" transform="matrix(1.040341,0,0,1.040341,381.1148,-48.02335)"/></clipPath><clipPath id="clipPath6314"><path d="m 31.819806,16.001709 a 15.379573,15.379573 0 1 1 -30.7591456,0 15.379573,15.379573 0 1 1 30.7591456,0 z" id="path6316" style="fill:#b23d84;fill-opacity:1;stroke:none" transform="matrix(1.1730426,0,0,1.1730426,-2.745903,-2.1407776)"/></clipPath><clipPath id="clipPath7148"><path d="m 31.819806,16.001709 a 15.379573,15.379573 0 1 1 -30.7591456,0 15.379573,15.379573 0 1 1 30.7591456,0 z" id="path7150" style="fill:#6e549e;fill-opacity:1;stroke:none" transform="matrix(1.040341,0,0,1.040341,287.09251,1019.3389)"/></clipPath><clipPath id="clipPath6001"><path d="m 34.648232,16.090097 a 15.909903,15.909903 0 1 1 -31.8198056,0 15.909903,15.909903 0 1 1 31.8198056,0 z" id="path6003" style="fill:#5a4c55;fill-opacity:1;stroke:none" transform="matrix(1.005663,0,0,1.005663,238.31366,1066.8119)"/></clipPath><clipPath id="clipPath6629"><path d="m 31.819806,16.001709 a 15.379573,15.379573 0 1 1 -30.7591456,0 15.379573,15.379573 0 1 1 30.7591456,0 z" id="path6631" style="fill:#fed42a;fill-opacity:1;stroke:none" transform="matrix(1.040341,0,0,1.040341,-1.1034487,-0.6472)"/></clipPath><clipPath id="clipPath6637"><path d="m 15.925543,6.4882 c -1.116844,3.5628 -2.308145,3.5847 -5.360854,7.296 -1.060035,1.243 -1.712495,2.8426 -1.712495,4.602 0,3.9353 3.200182,7.1256 7.147806,7.1256 3.947623,0 7.147806,-3.1903 7.147806,-7.1256 0,-1.8259 -0.691358,-3.4896 -1.82418,-4.7505 -2.941024,-3.5628 -4.132325,-3.5847 -5.398083,-7.1475 z" id="path6639" style="fill:#37c8ab;fill-opacity:1;stroke:none"/></clipPath><clipPath id="clipPath5643"><path d="m 31.819806,16.001709 a 15.379573,15.379573 0 1 1 -30.7591456,0 15.379573,15.379573 0 1 1 30.7591456,0 z" id="path5645" style="fill:#3e4059;fill-opacity:1;stroke:none" transform="matrix(1.040341,0,0,1.040341,193.07021,1066.3389)"/></clipPath><clipPath id="clipPath5950"><path d="m 246.54713,1073.5382 c 1.94804,0.024 3.12108,-0.692 3.78722,-1.8936 0.4759,1.0807 1.74918,1.7057 3.78721,1.8936 0,2.856 -0.9468,5.6809 -3.78721,6.6277 -2.84041,-0.9468 -3.78722,-3.7223 -3.78722,-6.6277 z" id="path5952" style="fill:#eaeaea;fill-opacity:1;stroke:none"/></clipPath><clipPath id="clipPath5946"><path d="m 246.54713,1073.5382 c 1.94804,0.024 3.12108,-0.692 3.78722,-1.8936 0.4759,1.0807 1.74918,1.7057 3.78721,1.8936 0,2.856 -0.9468,5.6809 -3.78721,6.6277 -2.84041,-0.9468 -3.78722,-3.7223 -3.78722,-6.6277 z" id="path5948" style="fill:#eaeaea;fill-opacity:1;stroke:none"/></clipPath><clipPath id="clipPath5497"><path d="m 31.819806,16.001709 a 15.379573,15.379573 0 1 1 -30.7591456,0 15.379573,15.379573 0 1 1 30.7591456,0 z" id="path5499" style="fill:#8dba2a;fill-opacity:1;stroke:none" transform="matrix(1.040341,0,0,1.040341,240.08136,1066.3389)"/></clipPath><clipPath id="clipPath6189"><path d="m 31.819806,16.001709 a 15.379573,15.379573 0 1 1 -30.7591456,0 15.379573,15.379573 0 1 1 30.7591456,0 z" id="path6191" style="fill:#e4567f;fill-opacity:1;stroke:none" transform="matrix(1.040341,0,0,1.040341,287.09251,45.9767)"/></clipPath><clipPath id="clipPath6878"><path d="m 31.819806,16.001709 a 15.379573,15.379573 0 1 1 -30.7591456,0 15.379573,15.379573 0 1 1 30.7591456,0 z" id="path6880" style="fill:#37c8ab;fill-opacity:1;stroke:none" transform="matrix(1.040341,0,0,1.040341,557.60366,56.4767)"/></clipPath></defs><g id="layer1" transform="translate(0,-1020.3622)"><g id="g9715" transform="matrix(0.99983873,0,0,0.99983873,-558.61443,-56.947587)"><path d="m 31.819806,16.001709 a 15.379573,15.379573 0 1 1 -30.7591456,0 15.379573,15.379573 0 1 1 30.7591456,0 z" id="path5804" style="fill:#37c8ab;fill-opacity:1;stroke:none" transform="matrix(1.040341,0,0,1.040341,557.60366,1076.8389)"/><path clip-path="url(#clipPath6878)" d="m 575.66016,62.839844 5.2576,2.993906 0,-2.39625 1.55099,0 9.66036,5.510416 -0.69545,13.895844 -10.92955,8.87499 -14.76676,-8.392847 0.13052,-0.409913 -1.9677,-1.070199 0.27669,-1.312382 3.59645,2.040218 0.02,-0.194677 -4.74326,-2.726499 0.87416,-1.003197 1.54174,0.884667 5.63397,-4.824814 -4.88016,-2.781206 z" id="path6867" style="fill:#28927d;fill-opacity:1;stroke:none" transform="translate(0,1020.3622)"/><path d="m 583.20991,1092.1856 0.0257,11.6438 -6.57858,0 -1.78307,0 -3.57613,0 -3.61034,0 -0.003,-11.6438" id="path6748" style="fill:#48525f;fill-opacity:1;stroke:none"/><rect height="5.1952991" id="rect6750" rx="0.19887379" ry="0.19887379" style="fill:#3e4753;fill-opacity:1;stroke:none" width="5.2104707" x="575.98816" y="1095.1593"/><path d="m 580.92022,1088.1077 0,-4.3208 1.55869,0 0,5.7557" id="path6754" style="fill:#48525f;fill-opacity:1;stroke:none"/><rect height="4.6325173" id="rect6756" style="fill:#e5d9ce;fill-opacity:1;stroke:none" width="4.6460457" x="576.27039" y="1095.4408"/><path d="m 578.15957,1095.4567 0,4.6297 0.85143,0 0,-4.6297 -0.85143,0 z" id="path6758" style="font-size:medium;font-style:normal;font-variant:normal;font-weight:normal;font-stretch:normal;text-indent:0;text-align:start;text-decoration:none;line-height:normal;letter-spacing:normal;word-spacing:normal;text-transform:none;direction:ltr;block-progression:tb;writing-mode:lr-tb;text-anchor:start;baseline-shift:baseline;color:#000000;fill:#cec5ba;fill-opacity:1;stroke:none;stroke-width:1.00000012px;marker:none;visibility:visible;display:inline;overflow:visible;enable-background:accumulate;font-family:Sans;-inkscape-font-specification:Sans"/><path d="m 576.27045,1097.3458 0,0.8514 4.62966,0 0,-0.8514 -4.62966,0 z" id="path6760" style="font-size:medium;font-style:normal;font-variant:normal;font-weight:normal;font-stretch:normal;text-indent:0;text-align:start;text-decoration:none;line-height:normal;letter-spacing:normal;word-spacing:normal;text-transform:none;direction:ltr;block-progression:tb;writing-mode:lr-tb;text-anchor:start;baseline-shift:baseline;color:#000000;fill:#cec5ba;fill-opacity:1;stroke:none;stroke-width:1.00000012px;marker:none;visibility:visible;display:inline;overflow:visible;enable-background:accumulate;font-family:Sans;-inkscape-font-specification:Sans"/><path d="m 583.21099,1092.3129 -0.004,0.5686 -6.56732,0 -1.78002,0 -3.57002,0 -3.60416,0 -0.003,-0.5753" id="path6762" style="fill:#3e4753;fill-opacity:1;stroke:none"/><path d="m 580.92672,1087.7031 0,0.3991 1.54322,1.4368 0,-0.3991 -1.54322,-1.4368 z" id="path6768" style="fill:#3e4753;fill-opacity:1;stroke:none"/><path d="m 567.5634,1104.0401 0,-0.9677" id="path3972" style="fill:none;stroke:#ffffff;stroke-width:1px;stroke-linecap:butt;stroke-linejoin:miter;stroke-opacity:1"/><path d="m 569.82467,1103.4341 -0.45225,-0.7833" id="path3974" style="fill:none;stroke:#ffffff;stroke-width:1px;stroke-linecap:butt;stroke-linejoin:miter;stroke-opacity:1"/><path d="m 571.48002,1101.7788 -0.78331,-0.4523" id="path3976" style="fill:none;stroke:#ffffff;stroke-width:1px;stroke-linecap:butt;stroke-linejoin:miter;stroke-opacity:1"/><path d="m 572.08592,1099.5175 -0.90449,0" id="path3978" style="fill:none;stroke:#ffffff;stroke-width:1px;stroke-linecap:butt;stroke-linejoin:miter;stroke-opacity:1"/><path d="m 563.0409,1099.5175 0.90449,0" id="path3980" style="fill:none;stroke:#ffffff;stroke-width:1px;stroke-linecap:butt;stroke-linejoin:miter;stroke-opacity:1"/><path d="m 563.64679,1101.7788 0.78332,-0.4523" id="path3982" style="fill:none;stroke:#ffffff;stroke-width:1px;stroke-linecap:butt;stroke-linejoin:miter;stroke-opacity:1"/><path d="m 565.30215,1103.4341 0.45224,-0.7833" id="path3985" style="fill:none;stroke:#ffffff;stroke-width:1px;stroke-linecap:butt;stroke-linejoin:miter;stroke-opacity:1"/><path d="m 569.93276,1099.8132 c 0,-1.4489 -1.40958,-2.7164 -1.40958,-3.9138 -0.93972,0 -0.90973,0 -1.84946,0 0,1.1866 -1.43957,2.4649 -1.43957,3.9138 0,1.3338 1.05182,2.4151 2.34931,2.4151 1.29749,0 2.3493,-1.0813 2.3493,-2.4151 z" id="path3987" style="fill:#ffd500;fill-opacity:1;stroke:none"/><path d="m 567.09375,1092.2812 0,1.875 1,0 0,-1.875 -1,0 z" id="path6126" style="font-size:medium;font-style:normal;font-variant:normal;font-weight:normal;font-stretch:normal;text-indent:0;text-align:start;text-decoration:none;line-height:normal;letter-spacing:normal;word-spacing:normal;text-transform:none;direction:ltr;block-progression:tb;writing-mode:lr-tb;text-anchor:start;baseline-shift:baseline;color:#000000;fill:#48525f;fill-opacity:1;stroke:none;stroke-width:1px;marker:none;visibility:visible;display:inline;overflow:visible;enable-background:accumulate;font-family:Sans;-inkscape-font-specification:Sans"/><path d="m 566.68287,1095.9093 c 0,0 2.29407,0 1.84436,0 l -0.008,-1.7639 -1.83599,0 z" id="path3989" style="fill:#f2f2f2;fill-opacity:1;stroke:none"/><path d="m 566.6875,1094.1435 0,0.2187 1.84375,0 0,-0.2187 -1.84375,0 z" id="path6835" style="fill:#ffffff;fill-opacity:1;stroke:none"/><path d="m 566.6875,1095.6902 0,0.2188 1.84375,0 0,-0.2188 -1.84375,0 z" id="path6840" style="fill:#b3b3b3;fill-opacity:1;stroke:none"/><path d="m 567.09375,1092.2685 0,1.875 0.125,0 0,-1.875 -0.125,0 z" id="path6850" style="font-size:medium;font-style:normal;font-variant:normal;font-weight:normal;font-stretch:normal;text-indent:0;text-align:start;text-decoration:none;line-height:normal;letter-spacing:normal;word-spacing:normal;text-transform:none;direction:ltr;block-progression:tb;writing-mode:lr-tb;text-anchor:start;baseline-shift:baseline;color:#000000;fill:#5e6c7c;fill-opacity:1;stroke:none;stroke-width:1px;marker:none;visibility:visible;display:inline;overflow:visible;enable-background:accumulate;font-family:Sans;-inkscape-font-specification:Sans"/><path d="m 567.96106,1092.2685 0,1.875 0.125,0 0,-1.875 -0.125,0 z" id="path6855" style="font-size:medium;font-style:normal;font-variant:normal;font-weight:normal;font-stretch:normal;text-indent:0;text-align:start;text-decoration:none;line-height:normal;letter-spacing:normal;word-spacing:normal;text-transform:none;direction:ltr;block-progression:tb;writing-mode:lr-tb;text-anchor:start;baseline-shift:baseline;color:#000000;fill:#3d4550;fill-opacity:1;stroke:none;stroke-width:1px;marker:none;visibility:visible;display:inline;overflow:visible;enable-background:accumulate;font-family:Sans;-inkscape-font-specification:Sans"/><path d="m 575.31259,1083.1533 c -0.11076,0.018 -0.19678,0.069 -0.23947,0.1064 l -8.99325,8.3547 c -0.0549,0.075 -0.10643,0.167 -0.10643,0.266 0,0.235 0.16899,0.4115 0.39911,0.4258 l 18.06633,0 c 0.22775,-0.014 0.39911,-0.1932 0.39911,-0.4258 0,-0.06 -0.003,-0.131 -0.0266,-0.1862 -0.0157,-0.036 -0.0341,-0.05 -0.0565,-0.08 l -0.0499,-0.053 -9.04647,-8.3015 c -0.11533,-0.1043 -0.23514,-0.1244 -0.3459,-0.1064 z" id="path6752" style="fill:#e5d9ce;fill-opacity:1;stroke:none"/><path d="m 575.7383,1083.2597 8.99326,8.3547 c 0.0549,0.075 0.10643,0.167 0.10643,0.2661 0,0.2349 -0.16899,0.4115 -0.39911,0.4257 l -1.06429,0 c -5.51674,-6.5703 -5.71225,-6.8328 -7.99109,-9.1633 0.21611,0.01 0.31212,0.079 0.3548,0.1168 z" id="path6764" style="fill:#cec5ba;fill-opacity:1;stroke:none"/><path d="m 575.05091,1083.2597 -8.99326,8.3547 c -0.0549,0.075 -0.10643,0.167 -0.10643,0.2661 0,0.2349 0.169,0.4115 0.39911,0.4257 l 1.06429,0 c 5.51674,-6.5703 5.71226,-6.8328 7.9911,-9.1633 -0.21612,0.01 -0.31213,0.079 -0.35481,0.1168 z" id="path6766" style="fill:#fceee2;fill-opacity:1;stroke:none"/><path d="m 565.25,1099.6435 c -0.004,0.053 -0.0312,0.1024 -0.0312,0.1562 0,1.3338 1.07751,2.4375 2.375,2.4375 1.29749,0 2.34375,-1.1037 2.34375,-2.4375 0,-0.054 -0.0275,-0.103 -0.0312,-0.1562 -0.0639,1.2751 -1.05618,2.3125 -2.3125,2.3125 -1.25632,0 -2.2799,-1.0374 -2.34375,-2.3125 z" id="path6857" style="fill:#ffe500;fill-opacity:1;stroke:none"/><path d="m 566.6875,1095.8935 c 0,1.1866 -1.46875,2.4573 -1.46875,3.9062 0,0.053 0.028,0.1045 0.0312,0.1563 0.11666,-1.3703 1.4375,-2.5848 1.4375,-3.7188 l 1.84375,0 c 0,1.1443 1.26077,2.3493 1.375,3.7188 0.003,-0.052 0.0312,-0.1037 0.0312,-0.1563 0,-1.4489 -1.40625,-2.7088 -1.40625,-3.9062 l -1.84375,0 z" id="path6862" style="fill:#ffc100;fill-opacity:1;stroke:none"/></g></g></svg>