<?xml version="1.0" ?><svg enable-background="new 0 0 100 100" id="Layer_1" version="1.1" viewBox="0 0 100 100" xml:space="preserve" xmlns="http://www.w3.org/2000/svg" xmlns:xlink="http://www.w3.org/1999/xlink"><path d="M91,29V12.5c0-2.8-3.8-5-6.5-5c-2.7,0-6.5,2.2-6.5,5V29h-7V12.5c0-2.8-4-5-6.7-5c-2.7,0-6.3,2.2-6.3,5V29h-8v1.1  c0,12.4,10.7,22.9,23.1,23.7c0.3,4,0.5,15.9-6.9,24.5C60.4,85,51.3,88.4,39,88.4c-12.9,0-21.8-3.3-26.5-9.7  C7.5,72,8.4,63.3,9.1,59.3c0.6-0.1,1.3-0.2,2,0c0,0,13,1.9,16-11.8c3.6-16.7,1.9-21.3,9-25.7c0,0-25.4,2.6-32.6,17  c-5.7,11.5-0.2,14.4,2,18c-0.8,3.2-3.2,15,3.6,24.4c5.5,7.6,15.6,11.4,29.8,11.4c13.5,0,23.7-3.9,30.3-11.6  c8.3-9.7,8.3-22.4,7.9-27.2C89,52.4,99,42.1,99,30.1V29H91z M7.3,52.4c0.1-0.9,0.4-1.8,0.7-2.8c0.3-1,0.5-2.2,1-3.3  c0.5-1.1,0.9-2.4,1.5-3.6c0.6-1.2,1.3-2.4,2-3.7c0.8-1.2,1.6-2.4,2.5-3.5c0.9-1.1,1.8-2.3,2.8-3.2c0.5-0.5,1-1,1.5-1.5  c0.5-0.5,1.1-0.9,1.6-1.3c1-0.9,2.1-1.6,3.1-2.3c1.1-0.6,2-1.3,3-1.8c1.9-1,3.6-1.6,4.8-2c1.2-0.4,1.9-0.5,1.9-0.5S33,23,31.9,23.6  c-1.1,0.6-2.6,1.5-4.4,2.7c-0.9,0.6-1.8,1.3-2.7,2c-0.9,0.8-1.9,1.5-2.8,2.5c-0.5,0.4-1,0.9-1.4,1.4c-0.5,0.5-0.9,1-1.4,1.5  c-1,1-1.8,2.1-2.7,3.1c-0.9,1.1-1.6,2.2-2.4,3.4c-0.7,1.2-1.4,2.3-2.1,3.4c-0.6,1.2-1.1,2.3-1.7,3.4C9.8,47.9,9.5,49,9,49.9  c-0.4,1-0.8,1.9-1,2.7c-0.3,0.8-0.5,1.5-0.7,2.1c-0.2,0.7-0.4,1.2-0.5,1.5l-0.1,0c0-0.3,0.1-0.8,0.2-1.6C7,54,7.1,53.3,7.3,52.4z   M81,12.5c0-0.6,2.4-1.6,3.5-1.6c1.1,0,3.5,1,3.5,1.6V29h-7V12.5z M61,12.5c0-0.6,2.2-1.6,3.3-1.6c1.1,0,3.7,1,3.7,1.6V29h-7V12.5z"/></svg>