<?xml version="1.0" ?><svg enable-background="new 0 0 128 128" id="icons" version="1.1" viewBox="0 0 128 128" xml:space="preserve" xmlns="http://www.w3.org/2000/svg" xmlns:xlink="http://www.w3.org/1999/xlink"><g id="wrench"><g id="XMLID_3_"><g><path d="M75.3,98l10,2.7l2.7,10l-7.3,7.3l-10-2.7l-2.7-10L75.3,98z M81.8,104.2c-2.1-2.1-5.5-2.1-7.6,0     c-2.1,2.1-2.1,5.5,0,7.6c2.1,2.1,5.5,2.1,7.6,0C83.9,109.7,83.9,106.3,81.8,104.2z" fill="#FFF9C4"/></g><g><polygon fill="none" points="80.7,118      70.6,115.4 68,105.3 75.3,98 85.4,100.6 88,110.7    " stroke="#616161" stroke-linejoin="round" stroke-miterlimit="10" stroke-width="2"/><ellipse cx="78" cy="108" fill="none" rx="5.4" ry="5.4" stroke="#616161" stroke-linejoin="round" stroke-miterlimit="10" stroke-width="2" transform="matrix(0.7071 -0.7071 0.7071 0.7071 -53.5219 86.7868)"/></g></g><g><path d="M109.1,91h-5.3    c-0.3-0.3-0.5-0.5-0.9-0.9V70.9c0.3-0.3,0.5-0.5,0.9-0.9h5.3c0.3,0.3,0.5,0.5,0.9,0.9v19.3C109.7,90.5,109.5,90.7,109.1,91z" fill="#FFECB3" stroke="#616161" stroke-linejoin="round" stroke-miterlimit="10" stroke-width="2"/><g><path d="M94,82.5v-5     c0.6-0.6,0.9-0.9,1.5-1.5h21c0.6,0.6,0.9,0.9,1.5,1.5v5c-0.6,0.6-0.9,0.9-1.5,1.5h-21C94.9,83.4,94.6,83.1,94,82.5z" fill="#FFFDE7" stroke="#616161" stroke-linejoin="round" stroke-miterlimit="10" stroke-width="2"/><line fill="none" stroke="#616161" stroke-linejoin="round" stroke-miterlimit="10" stroke-width="2" x1="112" x2="112" y1="76" y2="84"/><line fill="none" stroke="#616161" stroke-linejoin="round" stroke-miterlimit="10" stroke-width="2" x1="100" x2="100" y1="76" y2="84"/></g></g><g id="XMLID_4_"><g><path d="M111.9,22.6c0.4,0.6,0.7,1.1,1.1,1.6l0.8,9.2c-0.3,0.7-0.5,1.2-0.8,1.8l-7.6,5.3c-0.7,0.1-1.3,0.1-2,0.2     L95,36.9c-0.4-0.6-0.7-1.1-1.1-1.6L93.1,26c0.3-0.7,0.5-1.2,0.8-1.8l7.6-5.3c0.7-0.1,1.3-0.1,2-0.2L111.9,22.6z M108.4,26.3     c-1.9-2.7-5.6-3.4-8.4-1.5c-0.1,0.1-0.2,0.2-0.3,0.3c-2.4,2-3,5.5-1.1,8.1c1.9,2.7,5.6,3.4,8.4,1.5c0.1-0.1,0.2-0.2,0.3-0.3     C109.6,32.4,110.2,28.9,108.4,26.3z" fill="#FFF9C4"/></g><g><path d="M103.4,40.8L95,36.9     c-0.4-0.6-0.7-1.1-1.1-1.6L93.1,26c0.3-0.7,0.5-1.2,0.8-1.8l7.6-5.3c0.7-0.1,1.3-0.1,2-0.2l8.4,3.9c0.4,0.6,0.7,1.1,1.1,1.6     l0.8,9.2c-0.3,0.7-0.5,1.2-0.8,1.8l-7.6,5.3C104.7,40.6,104.1,40.7,103.4,40.8z" fill="none" stroke="#616161" stroke-linejoin="round" stroke-miterlimit="10" stroke-width="2"/><path d="M106.9,34.7     c-2.7,1.9-6.5,1.2-8.4-1.5c-1.8-2.6-1.3-6.1,1.1-8.1" fill="none" stroke="#616161" stroke-linejoin="round" stroke-miterlimit="10" stroke-width="2"/><path d="M100,24.8     c2.7-1.9,6.5-1.2,8.4,1.5c1.8,2.6,1.3,6.1-1.1,8.1" fill="none" stroke="#616161" stroke-linejoin="round" stroke-miterlimit="10" stroke-width="2"/><path d="M107.9,29.1     c1.2,1.7,0.9,4-0.7,5.3c-0.1,0.1-0.2,0.2-0.3,0.3" fill="none" stroke="#616161" stroke-linejoin="round" stroke-miterlimit="10" stroke-width="2"/><path d="M99,30.4     c-1.2-1.7-0.9-4,0.7-5.3c0.1-0.1,0.2-0.2,0.3-0.3" fill="none" stroke="#616161" stroke-linejoin="round" stroke-miterlimit="10" stroke-width="2"/></g></g><g id="XMLID_1_"><g><path d="M108.4,40.4c0,0.9,0,1.7-0.1,2.6c-0.7,6.7-4.3,12.3-9.5,15.6c-0.4,0.2-0.7,0.5-1.1,0.6c0,0-0.1,0-0.1,0.1     c-0.2,0.1-0.3,0.1-0.5,0.2c-4.2,1.8-9.1,0.9-12.6-2.2C78.7,52,74.1,45.4,71.1,38.1c-1.8-4.2-0.9-9.1,2.1-12.5     c0.1-0.1,0.2-0.2,0.3-0.3c0.4-0.4,0.8-0.8,1.3-1.1c4.9-3.7,11.4-5.3,17.9-3.6c0.9,0.2,1.7,0.5,2.5,0.8c0.7,0.3,0.8,1.3,0.2,1.8     l-10.4,7.3c-4.7,3.3,6.8,19.6,11.5,16.4l10.4-7.3C107.4,39.2,108.3,39.6,108.4,40.4z" fill="#E0F7FA"/><path d="M84.5,57.3c3.4,3.1,8.4,4,12.6,2.2c-3.7,1.7-7.8,2.2-11.8,1.7c-2.4-0.3-4.9,0.5-6.6,2.3L52.4,89.7     c-1.1,1.1-1.9,2.6-2.2,4.2c-0.6,3.3-2.3,6.5-5.3,8.8c-5,3.9-12.2,3.8-17.2-0.2c-6.6-5.3-7-15-1.2-20.9c2.1-2.1,4.7-3.4,7.4-3.9     c1.6-0.3,3.2-1.1,4.3-2.2l26.8-26.8c1.7-1.7,2.6-4,2.3-6.3c-0.6-6,1.3-12.2,5.8-16.8c-3,3.3-3.9,8.2-2.1,12.5     C74.1,45.4,78.7,52,84.5,57.3z M44.9,94.7l-1.5-3.4l1.2-3.5l-3.4-1.3l-1.7-3.3l-3.4,1.5l-3.5-1.2l-1.4,3.4L28,88.5l1.5,3.4     l-1.2,3.5l3.4,1.4l1.6,3.3l3.4-1.5l3.5,1.2l1.4-3.4L44.9,94.7z" fill="#B2DFDB"/></g><g><path d="M97.5,59.3     c-0.2,0.1-0.3,0.1-0.5,0.2c-3.7,1.7-7.8,2.2-11.8,1.7c-2.4-0.3-4.9,0.5-6.6,2.3L52.4,89.7c-1.1,1.1-1.9,2.6-2.2,4.2     c-0.6,3.3-2.3,6.5-5.3,8.8c-5,3.9-12.2,3.8-17.2-0.2c-6.6-5.3-7-15-1.2-20.9c2.1-2.1,4.7-3.4,7.4-3.9c1.6-0.3,3.2-1.1,4.3-2.2     l26.8-26.8c1.7-1.7,2.6-4,2.3-6.3c-0.6-6,1.3-12.2,5.8-16.8" fill="none" stroke="#546E7A" stroke-linejoin="round" stroke-miterlimit="10" stroke-width="2"/><polygon fill="none" points="44.6,87.8      43.4,91.3 44.9,94.7 41.6,96.3 40.2,99.7 36.7,98.6 33.3,100 31.7,96.7 28.3,95.4 29.4,91.9 28,88.5 31.3,86.8 32.6,83.4      36.1,84.6 39.5,83.1 41.2,86.4    " stroke="#546E7A" stroke-linejoin="round" stroke-miterlimit="10" stroke-width="2"/><path d="M97.6,59.3     c0.4-0.2,0.8-0.4,1.1-0.6c5.2-3.3,8.9-8.9,9.5-15.6c0.1-0.9,0.1-1.8,0.1-2.6c0-0.8-0.9-1.2-1.6-0.8l-10.4,7.3     c-4.6,3.3-16.1-13.1-11.5-16.4l10.4-7.3c0.7-0.4,0.5-1.4-0.2-1.8c-0.8-0.3-1.6-0.6-2.5-0.8c-6.5-1.7-13-0.1-17.9,3.6     c-0.4,0.3-0.9,0.7-1.3,1.1c-0.1,0.1-0.2,0.2-0.3,0.3c-3,3.3-3.9,8.2-2.1,12.5c3,7.3,7.6,13.8,13.4,19.2c3.4,3.1,8.4,4,12.6,2.2     C97.2,59.5,97.4,59.4,97.6,59.3C97.6,59.3,97.6,59.3,97.6,59.3z" fill="none" stroke="#546E7A" stroke-linejoin="round" stroke-miterlimit="10" stroke-width="2"/><path d="M41,79.4     c3.5,1.3,6.3,4.1,7.7,7.7" fill="none" stroke="#546E7A" stroke-linejoin="round" stroke-miterlimit="10" stroke-width="2"/></g></g><g><g><rect fill="#FFE0B2" height="24" stroke="#616161" stroke-linejoin="round" stroke-miterlimit="10" stroke-width="2" transform="matrix(0.7071 0.7071 -0.7071 0.7071 47.5062 -2.6901)" width="4" x="25" y="44"/><line fill="#FFE0B2" stroke="#616161" stroke-linejoin="round" stroke-miterlimit="10" stroke-width="2" x1="29.8" x2="32.7" y1="50.3" y2="53.2"/><line fill="#FFE0B2" stroke="#616161" stroke-linejoin="round" stroke-miterlimit="10" stroke-width="2" x1="21.3" x2="24.2" y1="58.8" y2="61.7"/></g><g><path d="M18,50.1l3.1-3.1     c0.7,0,1.1,0,1.9,0l13,13c0,0.7,0,1.1,0,1.9L32.9,65c-0.7,0-1.1,0-1.9,0L18,52C18,51.3,18,50.8,18,50.1z" fill="#FFFDE7" stroke="#616161" stroke-linejoin="round" stroke-miterlimit="10" stroke-width="2"/><line fill="none" stroke="#616161" stroke-linejoin="round" stroke-miterlimit="10" stroke-width="2" x1="33.2" x2="28.2" y1="57.2" y2="62.2"/><line fill="none" stroke="#616161" stroke-linejoin="round" stroke-miterlimit="10" stroke-width="2" x1="25.8" x2="20.8" y1="49.8" y2="54.8"/></g></g><g id="XMLID_5_"><g><path d="M52.9,7.2l7.8,2.1l2.1,7.8l-5.7,5.7l-7.8-2.1l-2.1-7.8L52.9,7.2z M58,12c-1.6-1.6-4.3-1.6-5.9,0     s-1.6,4.3,0,5.9s4.3,1.6,5.9,0S59.6,13.7,58,12z" fill="#FFF9C4"/></g><g><polygon fill="none" points="57.1,22.8      49.3,20.7 47.2,12.9 52.9,7.2 60.7,9.3 62.8,17.1    " stroke="#616161" stroke-linejoin="round" stroke-miterlimit="10" stroke-width="2"/><ellipse cx="55" cy="15" fill="none" rx="4.2" ry="4.2" stroke="#616161" stroke-linejoin="round" stroke-miterlimit="10" stroke-width="2" transform="matrix(0.7071 -0.7071 0.7071 0.7071 5.5025 43.2843)"/></g></g><g id="XMLID_2_"><g><path d="M27.2,16l5.2,9l-5.2,9H16.8l-5.2-9l5.2-9H27.2z M27.4,25c0-3-2.4-5.4-5.4-5.4S16.6,22,16.6,25     s2.4,5.4,5.4,5.4S27.4,28,27.4,25z" fill="#FFF9C4"/></g><g><polygon fill="none" points="16.8,34      11.6,25 16.8,16 27.2,16 32.4,25 27.2,34    " stroke="#616161" stroke-linejoin="round" stroke-miterlimit="10" stroke-width="2"/><circle cx="22" cy="25" fill="none" r="5.4" stroke="#616161" stroke-linejoin="round" stroke-miterlimit="10" stroke-width="2"/></g></g></g></svg>